<mxfile host="app.diagrams.net" modified="2022-12-21T00:13:19.064Z" agent="5.0 (X11; Linux x86_64) AppleWebKit/537.36 (KHTML, like Gecko) Chrome/108.0.0.0 Safari/537.36" etag="2MtDa4gb0zpgRPQPR-P6" version="20.7.4" type="github" pages="2">
  <diagram id="bJO5yvKs17t3ZdH_xu3Z" name="Processos Desenvolvimento de Software">
    <mxGraphModel dx="2843" dy="811" grid="1" gridSize="10" guides="1" tooltips="1" connect="1" arrows="1" fold="1" page="1" pageScale="1" pageWidth="827" pageHeight="1169" math="0" shadow="0">
      <root>
        <mxCell id="0" />
        <mxCell id="1" parent="0" />
        <mxCell id="x9fMWzV4C5aZ7JfMv5D2-1" value="Processos de Desenvolvimento de Software" style="text;html=1;strokeColor=none;fillColor=none;align=center;verticalAlign=middle;whiteSpace=wrap;rounded=0;fontStyle=1" parent="1" vertex="1">
          <mxGeometry x="230" width="340" height="40" as="geometry" />
        </mxCell>
        <UserObject label="Levantamento de Requisitos" link="data:page/id,OGEskc1lDh1roVYiAvIV" id="x9fMWzV4C5aZ7JfMv5D2-2">
          <mxCell style="rounded=1;whiteSpace=wrap;html=1;fontStyle=1;fillColor=#fff2cc;strokeColor=#d6b656;" parent="1" vertex="1">
            <mxGeometry x="-89" y="240" width="120" height="60" as="geometry" />
          </mxCell>
        </UserObject>
        <mxCell id="x9fMWzV4C5aZ7JfMv5D2-3" value="Análise" style="rounded=1;whiteSpace=wrap;html=1;fontStyle=1" parent="1" vertex="1">
          <mxGeometry x="71" y="240" width="120" height="60" as="geometry" />
        </mxCell>
        <mxCell id="x9fMWzV4C5aZ7JfMv5D2-4" value="Projeto" style="rounded=1;whiteSpace=wrap;html=1;fontStyle=1" parent="1" vertex="1">
          <mxGeometry x="231" y="240" width="120" height="60" as="geometry" />
        </mxCell>
        <mxCell id="x9fMWzV4C5aZ7JfMv5D2-5" value="Implementação" style="rounded=1;whiteSpace=wrap;html=1;fontStyle=1" parent="1" vertex="1">
          <mxGeometry x="391" y="240" width="120" height="60" as="geometry" />
        </mxCell>
        <mxCell id="x9fMWzV4C5aZ7JfMv5D2-6" value="Testes" style="rounded=1;whiteSpace=wrap;html=1;fontStyle=1" parent="1" vertex="1">
          <mxGeometry x="568" y="240" width="120" height="60" as="geometry" />
        </mxCell>
        <mxCell id="x9fMWzV4C5aZ7JfMv5D2-7" value="Implantação" style="rounded=1;whiteSpace=wrap;html=1;fontStyle=1" parent="1" vertex="1">
          <mxGeometry x="741" y="240" width="120" height="60" as="geometry" />
        </mxCell>
      </root>
    </mxGraphModel>
  </diagram>
  <diagram id="OGEskc1lDh1roVYiAvIV" name="Levantamento de Requisitos">
    <mxGraphModel dx="2843" dy="1980" grid="1" gridSize="10" guides="1" tooltips="1" connect="1" arrows="1" fold="1" page="1" pageScale="1" pageWidth="827" pageHeight="1169" math="0" shadow="0">
      <root>
        <mxCell id="0" />
        <mxCell id="1" parent="0" />
        <mxCell id="-2TVGjhmmDEVEbKlfpcM-15" value="" style="rounded=0;whiteSpace=wrap;html=1;dashed=1;fillColor=#f8cecc;strokeColor=#b85450;" vertex="1" parent="1">
          <mxGeometry x="-320" y="20" width="290" height="310" as="geometry" />
        </mxCell>
        <mxCell id="-2TVGjhmmDEVEbKlfpcM-13" value="" style="rounded=0;whiteSpace=wrap;html=1;dashed=1;fillColor=#f8cecc;strokeColor=#b85450;" vertex="1" parent="1">
          <mxGeometry x="-10" y="20" width="700" height="310" as="geometry" />
        </mxCell>
        <mxCell id="-2TVGjhmmDEVEbKlfpcM-10" value="" style="rounded=0;whiteSpace=wrap;html=1;dashed=1;fillColor=#ffe6cc;strokeColor=#d79b00;" vertex="1" parent="1">
          <mxGeometry x="470" y="70" width="210" height="240" as="geometry" />
        </mxCell>
        <mxCell id="-2TVGjhmmDEVEbKlfpcM-9" value="" style="rounded=0;whiteSpace=wrap;html=1;dashed=1;fillColor=#ffe6cc;strokeColor=#d79b00;" vertex="1" parent="1">
          <mxGeometry x="235" y="70" width="210" height="240" as="geometry" />
        </mxCell>
        <mxCell id="-2TVGjhmmDEVEbKlfpcM-8" value="" style="rounded=0;whiteSpace=wrap;html=1;dashed=1;fillColor=#ffe6cc;strokeColor=#d79b00;" vertex="1" parent="1">
          <mxGeometry y="70" width="210" height="240" as="geometry" />
        </mxCell>
        <mxCell id="-2TVGjhmmDEVEbKlfpcM-2" value="Requisitos Funcionais" style="rounded=1;whiteSpace=wrap;html=1;fontStyle=1" vertex="1" parent="1">
          <mxGeometry x="50" y="240" width="120" height="60" as="geometry" />
        </mxCell>
        <mxCell id="-2TVGjhmmDEVEbKlfpcM-3" value="Requisitos Não Funcionais" style="rounded=1;whiteSpace=wrap;html=1;fontStyle=1" vertex="1" parent="1">
          <mxGeometry x="280" y="240" width="120" height="60" as="geometry" />
        </mxCell>
        <mxCell id="-2TVGjhmmDEVEbKlfpcM-4" value="Requisitos de Dominío" style="rounded=1;whiteSpace=wrap;html=1;fontStyle=1" vertex="1" parent="1">
          <mxGeometry x="515" y="240" width="120" height="60" as="geometry" />
        </mxCell>
        <mxCell id="-2TVGjhmmDEVEbKlfpcM-5" value="&lt;h1&gt;Requisitos Funcionais&lt;/h1&gt;&lt;div&gt;São os serviços que serão fornecidos pelo sistema, como:&lt;/div&gt;&lt;div&gt;&lt;span style=&quot;white-space: pre;&quot;&gt;	&lt;/span&gt;Um sistema que emite NF.&lt;br&gt;&lt;/div&gt;&lt;div&gt;&lt;span style=&quot;white-space: pre;&quot;&gt;	&lt;/span&gt;Um sistema de cadastro&lt;br&gt;&lt;/div&gt;" style="text;html=1;strokeColor=none;fillColor=none;spacing=5;spacingTop=-20;whiteSpace=wrap;overflow=hidden;rounded=0;" vertex="1" parent="1">
          <mxGeometry x="15" y="68" width="190" height="150" as="geometry" />
        </mxCell>
        <mxCell id="-2TVGjhmmDEVEbKlfpcM-6" value="&lt;h1&gt;Requisitos não Funcionais&lt;/h1&gt;&lt;div&gt;As restrições do sistema, como:&lt;/div&gt;&lt;div&gt;&lt;span style=&quot;white-space: pre;&quot;&gt;	&lt;/span&gt;Linguagem de Programação&lt;br&gt;&lt;/div&gt;&lt;div&gt;&lt;span style=&quot;white-space: pre;&quot;&gt;	&lt;/span&gt;SGBD&amp;nbsp;&lt;br&gt;&lt;/div&gt;&lt;div&gt;Também pode&amp;nbsp; ser definido como um requisito não funcional&lt;/div&gt;&lt;div&gt;&lt;span style=&quot;white-space: pre;&quot;&gt;	&lt;/span&gt;As cores, fontes&lt;br&gt;&lt;/div&gt;" style="text;html=1;strokeColor=none;fillColor=none;spacing=5;spacingTop=-20;whiteSpace=wrap;overflow=hidden;rounded=0;" vertex="1" parent="1">
          <mxGeometry x="245" y="68" width="190" height="170" as="geometry" />
        </mxCell>
        <mxCell id="-2TVGjhmmDEVEbKlfpcM-7" value="&lt;h1&gt;Requisitos de Dominío&lt;/h1&gt;&lt;div&gt;Conhecido como as Regras de Negócio, como:&lt;/div&gt;&lt;div&gt;&lt;span style=&quot;white-space: pre;&quot;&gt;	&lt;/span&gt;Cálculos que definem uma nota de um aluno.&lt;br&gt;&lt;/div&gt;&lt;div&gt;Ele é a restrição do Requisitos Funcionais.&lt;/div&gt;" style="text;html=1;strokeColor=none;fillColor=none;spacing=5;spacingTop=-20;whiteSpace=wrap;overflow=hidden;rounded=0;" vertex="1" parent="1">
          <mxGeometry x="480" y="69" width="190" height="170" as="geometry" />
        </mxCell>
        <mxCell id="-2TVGjhmmDEVEbKlfpcM-12" value="&lt;h1&gt;Requisitos de Usuário&lt;/h1&gt;&lt;div&gt;Um tipo de classificação que representa uma abstração mais alto nível&amp;nbsp;&lt;/div&gt;" style="text;html=1;strokeColor=none;fillColor=none;spacing=5;spacingTop=-20;whiteSpace=wrap;overflow=hidden;rounded=0;dashed=1;" vertex="1" parent="1">
          <mxGeometry x="-310" y="30" width="270" height="120" as="geometry" />
        </mxCell>
        <mxCell id="-2TVGjhmmDEVEbKlfpcM-14" value="&lt;h1&gt;Requisitos de Sistema&lt;/h1&gt;&lt;div&gt;&lt;br&gt;&lt;/div&gt;" style="text;html=1;strokeColor=none;fillColor=none;spacing=5;spacingTop=-20;whiteSpace=wrap;overflow=hidden;rounded=0;dashed=1;" vertex="1" parent="1">
          <mxGeometry x="190" y="20" width="300" height="40" as="geometry" />
        </mxCell>
        <UserObject label="VOLTAR" link="data:page/id,bJO5yvKs17t3ZdH_xu3Z" id="me080MPJL7Tdnd3wP407-1">
          <mxCell style="rounded=0;whiteSpace=wrap;html=1;fillColor=#f8cecc;strokeColor=#b85450;" vertex="1" parent="1">
            <mxGeometry x="-320" y="-80" width="120" height="40" as="geometry" />
          </mxCell>
        </UserObject>
        <mxCell id="nZw6ZSHNRH35kviVogvs-4" style="edgeStyle=orthogonalEdgeStyle;rounded=0;orthogonalLoop=1;jettySize=auto;html=1;exitX=0;exitY=0.5;exitDx=0;exitDy=0;exitPerimeter=0;strokeWidth=2;" edge="1" parent="1" source="nZw6ZSHNRH35kviVogvs-2">
          <mxGeometry relative="1" as="geometry">
            <mxPoint x="800" y="175" as="targetPoint" />
          </mxGeometry>
        </mxCell>
        <mxCell id="nZw6ZSHNRH35kviVogvs-2" value="" style="strokeWidth=2;html=1;shape=mxgraph.flowchart.annotation_2;align=left;labelPosition=right;pointerEvents=1;rotation=-180;" vertex="1" parent="1">
          <mxGeometry x="690" y="10" width="50" height="330" as="geometry" />
        </mxCell>
        <mxCell id="nZw6ZSHNRH35kviVogvs-5" value="&lt;h1&gt;Técnicas para Documentar Requisitos&lt;/h1&gt;&lt;div&gt;&lt;span style=&quot;color: rgb(33, 37, 41); font-family: Roboto, sans-serif; font-size: 19.2px;&quot;&gt;entrevistas, questionários, leituras de documentos, etnografia, entre outros.&lt;/span&gt;&lt;br&gt;&lt;/div&gt;" style="text;html=1;strokeColor=none;fillColor=none;spacing=5;spacingTop=-20;whiteSpace=wrap;overflow=hidden;rounded=0;" vertex="1" parent="1">
          <mxGeometry x="800" y="140" width="460" height="120" as="geometry" />
        </mxCell>
      </root>
    </mxGraphModel>
  </diagram>
</mxfile>
